<svg width="72" height="86" viewBox="0 0 72 86" fill="none" xmlns="http://www.w3.org/2000/svg">
<path d="M71.9999 20.8486V20.4268H71.9648C71.7541 15.2245 68.2419 10.0574 61.3756 6.103C47.2917 -2.03433 24.4625 -2.03433 10.4664 6.103C3.45957 10.1805 -0.0174948 15.5233 6.61839e-05 20.8662V31.8859V32.0792V42.9055V43.0989V53.9252V54.1185V65.1382C0.0351881 70.4811 3.5825 75.8239 10.6244 79.8838C17.6839 83.9613 26.9034 86 36.1054 86C45.3249 86 54.5092 83.9613 61.5336 79.8838C68.5404 75.8064 72.0175 70.4635 71.9999 65.1382V54.1185V53.5034V43.0989V42.4486V32.044V31.4289V20.8486C71.9999 20.8662 71.9999 20.8486 71.9999 20.8486ZM17.7893 14.2403L19.7386 13.1155C20.2303 12.8343 21.003 12.8343 21.5122 13.1155L23.9181 14.504C24.4449 14.1876 24.9893 13.8888 25.5161 13.5725L23.1103 12.184C22.6186 11.9028 22.6186 11.4459 23.1103 11.1647L25.0595 10.0399C25.5512 9.75865 26.3415 9.75865 26.8332 10.0399L29.9064 11.8149L30.3103 11.6919C33.7522 10.6374 37.4049 10.1629 41.3034 10.4441C44.359 10.6726 47.0985 11.3931 49.6097 12.4477C50.5931 12.8519 51.5063 13.3088 52.3317 13.7834C54.5092 15.0488 56.1775 16.5251 57.477 18.1948L57.7405 18.6517C58.039 19.2668 57.6878 19.6887 56.6517 19.9347C55.5629 20.2159 54.4566 20.462 53.3502 20.708C52.5775 20.8662 52.0331 20.831 51.559 20.5498C51.4361 20.4795 51.3307 20.3917 51.2078 20.3038C50.4702 19.6184 49.8029 18.8802 49.0127 18.2123C48.3102 17.5972 47.5375 17.0172 46.6595 16.5075C45.5005 15.8397 44.1658 15.2773 42.5678 14.8906C40.1795 14.2931 37.8439 14.4337 35.4907 14.9785L35.4029 14.9961L41.3561 18.4408C41.8478 18.722 41.8478 19.179 41.3561 19.4602L39.4068 20.585C38.9151 20.8662 38.1249 20.8662 37.6332 20.585L30.802 16.6481C30.2927 16.9469 29.7483 17.2633 29.2039 17.5796L36.0351 21.5165C36.5268 21.7977 36.5268 22.2546 36.0351 22.5358L34.0859 23.6607C33.5942 23.9419 32.8215 23.9419 32.3122 23.6607L26.0781 20.0577C24.6908 21.745 24.2517 23.4146 25.8147 25.1546C26.482 25.8927 27.3425 26.543 28.3434 27.123C29.2215 27.6327 30.1873 28.072 31.2234 28.4763C32.3824 28.8981 33.6117 29.2847 34.8059 29.7241C34.999 29.7944 35.1571 29.8647 35.2976 29.9526C35.7717 30.2338 35.842 30.5501 35.561 30.9895C35.1571 31.6574 34.7005 32.3077 34.2088 32.9404C33.8049 33.5204 33.0498 33.7313 31.961 33.5204C30.8722 33.2743 29.801 32.9755 28.7473 32.6416C26.8156 32.0089 25.0771 31.2707 23.5669 30.392C21.9864 29.4781 20.6517 28.4235 19.5805 27.2284C17.0693 24.3812 17.122 21.4813 19.1766 18.5638C19.5805 17.9839 20.1425 17.4742 20.6342 16.9293L17.7191 15.2421C17.2976 14.9785 17.2976 14.5215 17.7893 14.2403ZM10.6244 35.6118C24.7259 43.7667 47.52 43.7667 61.5336 35.6118C63.7112 34.3464 65.52 32.9404 67.0126 31.4641V32.0792C67.0302 35.7348 64.1151 39.5487 59.0224 42.5013C52.9814 46.0163 44.8507 47.9496 36.1054 47.9496C27.36 47.9496 19.1766 46.0163 13.1005 42.5013C7.95517 39.5311 4.98737 35.6997 4.95225 32.0616V31.341C6.51518 32.8525 8.37664 34.3112 10.6244 35.6118ZM59.04 64.5231C52.999 68.0381 44.8683 69.9714 36.1229 69.9714C27.3776 69.9714 19.1942 68.0381 13.1181 64.5231C7.97273 61.5529 5.00494 57.7215 4.96981 54.0834V53.5561C6.51518 55.0852 8.35908 56.5263 10.6244 57.8269C17.6839 61.9044 26.9034 63.9431 36.1054 63.9431C45.3249 63.9431 54.5092 61.9044 61.5336 57.8269C63.7112 56.5615 65.52 55.1555 67.0126 53.6791V54.1185C67.0478 57.7742 64.1326 61.5704 59.04 64.5231ZM59.04 53.521C52.999 57.036 44.8683 58.9693 36.1229 58.9693C27.3776 58.9693 19.1942 57.036 13.1181 53.521C7.97273 50.5508 5.00494 46.7194 4.96981 43.0813V42.554C6.51518 44.0831 8.35908 45.5242 10.6244 46.8248C17.6839 50.9023 26.9034 52.941 36.1054 52.941C45.3249 52.941 54.5092 50.9023 61.5336 46.8248C63.7112 45.5594 65.52 44.1534 67.0126 42.6771V43.1164C67.0478 46.7545 64.1326 50.5508 59.04 53.521ZM59.04 75.5427C52.999 79.0578 44.8683 80.9911 36.1229 80.9911C27.3776 80.9911 19.1942 79.0578 13.1181 75.5427C7.97273 72.5725 5.00494 68.7411 4.96981 65.1031V64.5758C6.51518 66.1048 8.35908 67.546 10.6244 68.8466C17.6839 72.924 26.9034 74.9628 36.1054 74.9628C45.3249 74.9628 54.5092 72.924 61.5336 68.8466C63.7112 67.5812 65.52 66.1751 67.0126 64.6988V65.1382C67.0478 68.7763 64.1326 72.5901 59.04 75.5427Z" fill="#54BD95"/>
</svg>
